# xmcd CD database file
#
# Track frame offsets:
#	182
#	23807
#	41255
#	62957
#	74182
#	93857
#	110057
#	121282
#	136732
#	160007
#	175057
#	189632
#
# Disc length: 2709 seconds
#
# Revision: 5
# Processed by: cddbd v1.5.1PL0 Copyright (c) Steve Scherf et al.
# Submitted via: CDex 1.51
#
DISCID=a30a930c
DTITLE=Reinhard Mey - Keine ruhige Minute
DYEAR=1981
DGENRE=Chanson
TTITLE0=Happy Birthday To Me
TTITLE1=Dieter Malinek, Ulla und ich
TTITLE2=Dr. Nahtlos, Dr. Sägeberg und Dr. Hein
TTITLE3=Von Kammerjägern, Klarsichthüllen, von dir und von mir
TTITLE4=Zeugnistag
TTITLE5=Alles ist gut
TTITLE6=Keine ruhige Minute
TTITLE7=Erinnerungen
TTITLE8=Daddy Blue
TTITLE9=Von Luftschlössern, die zerbrochen sind
TTITLE10=Was weiß ich schon von dir?
TTITLE11=Ab heut' und ab hier
EXTD=YEAR: 1981
EXTT0=
EXTT1=
EXTT2=
EXTT3=
EXTT4=
EXTT5=
EXTT6=
EXTT7=
EXTT8=
EXTT9=
EXTT10=
EXTT11=
PLAYORDER=
